 <svg version="1.0" xmlns="http://www.w3.org/2000/svg" width="700.000000pt" height="314.000000pt" viewBox="0 0 700.000000 314.000000" preserveAspectRatio="xMidYMid meet">
<metadata>
Created by potrace 1.12, written by Peter Selinger 2001-2015
</metadata>
<g transform="translate(0.000000,314.000000) scale(0.100000,-0.100000)" fill="#000000" stroke="none">
<path d="M5555 2940 c-27 -3 -57 -10 -65 -15 -8 -6 -54 -12 -102 -15 -62 -4
-92 -11 -106 -23 -10 -9 -34 -17 -54 -17 -20 0 -46 -9 -61 -20 -14 -11 -37
-20 -52 -20 -15 0 -38 -9 -52 -20 -14 -11 -31 -20 -38 -20 -6 0 -20 -9 -30
-20 -10 -11 -23 -20 -29 -20 -39 -1 -256 -229 -256 -270 0 -6 -9 -23 -20 -37
-11 -14 -20 -37 -20 -52 0 -14 -8 -39 -17 -56 -15 -25 -18 -60 -20 -207 -1
-157 1 -180 18 -212 10 -20 19 -43 19 -52 0 -9 8 -30 18 -47 27 -51 131 -176
160 -195 15 -9 45 -31 67 -48 22 -17 50 -35 62 -38 11 -4 27 -13 33 -21 7 -8
25 -15 40 -15 15 0 39 -9 53 -20 14 -11 40 -20 58 -20 18 0 40 -7 50 -16 10
-9 40 -19 66 -22 26 -2 60 -13 75 -23 18 -13 44 -19 81 -19 35 0 59 -5 66 -14
7 -8 42 -17 81 -21 38 -4 74 -13 80 -20 6 -7 39 -16 75 -20 35 -3 69 -13 76
-21 6 -8 26 -14 44 -14 18 0 44 -9 58 -20 14 -11 33 -20 44 -20 10 0 29 -9 43
-20 14 -11 30 -20 37 -20 15 0 93 -94 93 -113 0 -8 7 -20 15 -27 19 -16 19
-89 0 -114 -8 -11 -15 -28 -15 -38 0 -21 -67 -98 -85 -98 -6 0 -20 -9 -30 -20
-10 -11 -29 -20 -42 -20 -14 0 -36 -9 -50 -20 -20 -16 -41 -20 -98 -20 -42 0
-88 -6 -108 -15 -44 -18 -120 -20 -150 -3 -12 6 -78 15 -145 19 -91 6 -128 12
-141 23 -10 10 -36 16 -62 16 -26 0 -57 8 -77 20 -18 11 -43 20 -56 20 -13 0
-29 7 -36 15 -7 8 -30 18 -51 21 -21 4 -46 15 -55 25 -9 11 -25 19 -34 19 -10
0 -23 7 -30 15 -7 8 -17 15 -22 15 -6 0 -23 11 -40 25 -44 37 -65 33 -73 -14
-4 -22 -12 -45 -20 -51 -7 -6 -16 -26 -19 -44 -4 -19 -13 -39 -21 -46 -8 -7
-15 -21 -15 -32 0 -11 -9 -31 -20 -45 -11 -14 -20 -35 -20 -46 0 -11 -7 -28
-16 -38 -9 -10 -20 -35 -24 -55 -10 -42 1 -64 30 -64 10 0 23 -7 30 -15 13
-15 108 -65 124 -65 4 0 20 -9 34 -21 16 -12 34 -18 48 -15 14 4 28 -1 39 -14
11 -12 31 -20 49 -20 17 0 45 -9 61 -20 18 -12 47 -20 75 -20 25 0 63 -9 85
-20 29 -14 62 -19 120 -20 60 0 87 -4 105 -17 22 -16 51 -18 235 -18 184 0
213 2 235 18 17 12 44 17 90 17 47 0 74 5 98 20 18 11 50 20 71 20 21 0 44 6
50 14 7 8 27 18 44 22 18 3 37 11 44 16 7 5 27 17 45 27 116 61 168 98 224
161 63 70 124 157 124 177 0 10 9 35 20 56 11 20 20 49 20 64 0 16 8 42 17 58
19 36 23 228 4 263 -6 11 -14 49 -17 84 -4 35 -12 70 -19 78 -7 8 -19 29 -28
45 -22 43 -112 143 -166 185 -47 36 -82 57 -137 83 -17 8 -35 20 -38 26 -4 6
-24 11 -45 11 -25 0 -44 7 -56 20 -12 14 -31 20 -57 20 -25 0 -50 8 -65 20
-16 12 -41 20 -66 20 -22 0 -48 7 -57 15 -9 8 -43 17 -75 21 -33 4 -67 12 -75
19 -8 7 -46 15 -83 18 -43 3 -74 10 -86 21 -11 10 -35 16 -63 16 -32 0 -50 6
-63 20 -12 14 -31 20 -57 20 -25 0 -50 8 -65 20 -14 11 -36 20 -48 20 -12 0
-30 9 -40 20 -10 11 -24 20 -31 20 -7 0 -27 20 -44 44 -28 41 -30 51 -30 131
0 90 6 105 65 173 23 28 101 82 116 82 6 0 23 8 37 18 19 13 48 19 101 21 41
1 89 8 109 16 44 19 116 19 131 1 9 -10 48 -16 131 -21 82 -5 123 -12 131 -21
6 -8 28 -14 48 -14 20 0 50 -9 66 -20 17 -11 38 -20 48 -20 15 0 51 -16 117
-52 8 -4 29 -14 45 -21 17 -8 36 -21 44 -30 7 -10 19 -17 26 -17 17 0 45 44
45 70 0 11 9 38 20 60 11 22 20 50 20 63 0 14 6 30 14 36 8 7 18 27 22 44 4
18 15 48 25 67 11 19 19 40 19 47 0 7 9 17 20 23 11 6 20 16 20 23 0 18 -54
57 -78 57 -11 0 -31 9 -45 20 -14 11 -33 20 -44 20 -10 0 -29 9 -43 20 -14 11
-37 20 -52 20 -15 0 -42 9 -60 20 -19 11 -51 20 -73 20 -22 0 -51 8 -65 17
-16 12 -54 18 -124 23 -56 3 -111 11 -123 18 -25 14 -271 22 -358 12z m380
-55 c33 -8 84 -15 112 -15 29 0 79 -8 110 -19 32 -10 99 -31 148 -46 50 -16
125 -46 169 -67 94 -47 93 -28 5 -251 -49 -125 -66 -157 -81 -157 -10 0 -53
17 -96 39 -42 21 -108 48 -147 61 -38 13 -94 31 -123 41 -30 11 -72 19 -95 19
-23 0 -86 7 -140 16 -92 16 -105 16 -186 0 -47 -9 -105 -16 -127 -16 -50 0
-160 -52 -222 -106 -24 -20 -55 -59 -70 -88 -22 -43 -27 -64 -27 -131 0 -90
21 -143 73 -187 45 -38 167 -94 267 -123 50 -14 110 -32 135 -41 25 -8 55 -14
68 -14 12 0 48 -9 79 -20 32 -11 71 -20 88 -20 16 0 42 -6 57 -14 15 -8 42
-17 60 -21 105 -21 265 -79 371 -133 91 -47 221 -173 260 -252 37 -77 70 -247
63 -330 -13 -153 -82 -319 -172 -419 -60 -65 -179 -149 -286 -200 -78 -37
-225 -81 -271 -81 -17 0 -57 -7 -87 -16 -87 -24 -338 -30 -436 -10 -45 9 -110
19 -145 22 -141 12 -387 88 -554 171 -109 55 -122 74 -90 131 14 27 73 154
105 227 30 69 35 70 132 20 109 -57 270 -121 328 -130 25 -4 53 -12 64 -17 24
-13 272 -41 361 -42 91 0 269 27 320 48 129 53 185 108 220 215 15 46 16 61 6
106 -7 29 -26 74 -43 100 -32 48 -117 112 -178 135 -150 55 -226 77 -345 101
-27 6 -77 19 -110 30 -33 10 -70 19 -82 19 -13 0 -40 6 -60 14 -21 8 -84 28
-141 46 -57 17 -115 38 -130 46 -15 8 -32 14 -38 14 -20 0 -108 52 -164 98
-94 75 -160 163 -198 265 -19 51 -22 79 -22 216 0 171 12 226 75 351 36 71
151 190 241 249 101 67 323 151 400 151 21 0 56 5 76 10 114 32 356 35 473 5z"></path>
<path d="M225 2900 c-1 -3 1 -36 6 -75 8 -64 6 -2485 -2 -2530 -4 -20 2 -20
995 -23 1018 -2 1044 -1 1015 34 -7 8 -10 81 -8 214 1 110 0 203 -3 206 -3 2
-320 5 -705 4 -569 0 -702 2 -711 13 -14 16 -18 615 -4 629 5 5 260 10 612 11
l603 2 -1 228 0 228 -597 -1 c-437 0 -601 2 -611 11 -21 17 -21 571 0 588 10
8 196 11 686 11 370 -1 674 1 676 2 1 2 4 104 5 227 l2 223 -978 1 c-537 1
-978 0 -980 -3z m1910 -225 l0 -190 -658 -5 -659 -5 -23 -27 c-33 -38 -37 -80
-33 -346 l3 -234 32 -28 c23 -21 46 -30 85 -35 29 -3 286 -4 571 -2 392 2 520
0 528 -9 6 -7 8 -83 7 -190 l-3 -179 -587 -5 -587 -5 -23 -23 c-23 -22 -23
-26 -26 -300 -3 -302 2 -339 49 -374 24 -18 52 -19 685 -18 520 0 663 -2 677
-12 16 -12 17 -31 15 -193 l-3 -180 -955 0 -955 0 -3 1265 c-1 696 0 1271 3
1278 3 10 195 12 932 10 l928 -3 0 -190z"></path>
<path d="M2647 2900 c-1 -3 0 -104 3 -225 l5 -220 450 -3 c247 -1 453 -6 458
-11 9 -9 10 -1306 1 -1418 -6 -69 -35 -137 -90 -210 -33 -44 -122 -93 -170
-93 -22 -1 -50 -7 -64 -15 -33 -19 -91 -19 -116 0 -10 8 -39 15 -64 15 -29 0
-54 7 -70 20 -14 11 -32 20 -41 20 -9 0 -24 9 -34 20 -10 11 -23 20 -29 20 -6
0 -52 43 -103 95 l-92 95 -17 -31 c-9 -18 -35 -53 -58 -78 -23 -25 -71 -82
-106 -126 -35 -44 -82 -97 -104 -119 l-41 -38 66 -62 c70 -64 172 -139 207
-150 11 -4 26 -13 32 -21 7 -8 22 -15 35 -15 12 0 30 -9 40 -20 11 -12 31 -20
52 -20 18 0 50 -9 70 -20 26 -14 57 -20 98 -20 42 0 68 -5 85 -17 21 -15 48
-18 176 -18 115 0 155 3 168 14 9 8 53 17 96 21 52 5 87 13 98 24 10 9 32 16
49 16 17 0 36 6 42 14 7 8 24 17 38 21 15 3 38 15 51 26 14 10 29 19 33 19 27
0 199 191 213 237 4 11 13 27 21 33 8 7 15 21 15 33 0 11 8 34 19 51 10 17 21
51 25 76 4 24 12 50 19 58 23 28 30 251 33 1107 1 479 6 878 10 888 3 10 4 21
0 24 -7 7 -1507 10 -1509 3z m1451 -43 c15 -18 16 -1634 1 -1811 -26 -314
-155 -538 -379 -659 -170 -91 -512 -144 -656 -103 -27 8 -71 18 -99 22 -99 13
-263 78 -372 147 -55 35 -153 126 -153 143 0 26 241 314 263 314 5 0 45 -34
90 -75 45 -41 109 -89 141 -106 70 -35 180 -63 251 -63 70 0 188 29 233 57 96
61 163 175 181 306 15 116 15 1346 0 1390 -22 62 -27 63 -476 62 -294 -1 -409
1 -419 10 -11 9 -14 49 -14 189 0 97 3 180 7 183 3 4 318 7 698 7 551 0 695
-3 703 -13z"></path>
</g>
</svg>